<svg xmlns="http://www.w3.org/2000/svg" viewBox="0 0 96 96">
  <rect width="96" height="96" rx="24" fill="#171717"/>
  <path fill="#FDE68A" d="M23 25h29v10H34v9h15v10H34v19H23V25z"/>
  <path fill="#6EE7B7" d="M58 25h11v29c0 6-2 11-6 15s-9 6-15 6c-4 0-8-1-11-3l5-9c2 1 4 2 7 2 6 0 9-4 9-11V25z"/>
  <path fill="#F9A8D4" d="M68 25h5v29c0 8-2 14-7 18s-11 7-18 7c-5 0-10-1-14-4l2-4c4 2 8 3 12 3 6 0 11-2 15-5 3-4 5-9 5-15V25z"/>
  <text x="48" y="87" fill="#ffffff" font-family="Arial, sans-serif" font-size="12" font-weight="700" text-anchor="middle">FOR U</text>
</svg>
